<svg xmlns="http://www.w3.org/2000/svg" xmlns:xlink="http://www.w3.org/1999/xlink" viewBox="0 0 1780.9 1213.8"><defs><style>.cls-1,.cls-29{fill:none;}.cls-2{isolation:isolate;}.cls-3{fill:url(#linear-gradient);}.cls-15,.cls-21,.cls-4,.cls-40,.cls-5{mix-blend-mode:multiply;}.cls-4{fill:url(#linear-gradient-2);}.cls-5{fill:url(#linear-gradient-3);}.cls-6{fill:url(#linear-gradient-4);}.cls-7{fill:#fff;}.cls-8{fill:#ccd9e8;}.cls-9{fill:#21409a;}.cls-10{fill:#303990;}.cls-11{fill:#754c29;}.cls-12{fill:url(#linear-gradient-5);}.cls-13{clip-path:url(#clip-path);}.cls-14{opacity:0.5;}.cls-16{fill:#f06153;}.cls-17{fill:#c49a6c;}.cls-18{fill:#5a3640;}.cls-19{opacity:0.7;}.cls-20{fill:#f58757;}.cls-21{fill:#939598;}.cls-21,.cls-40{opacity:0.2;}.cls-22{fill:#9dce76;}.cls-23{fill:#a29a35;}.cls-24{fill:#f1f2f2;}.cls-25{fill:url(#linear-gradient-6);}.cls-26{fill:url(#linear-gradient-7);}.cls-27{fill:url(#linear-gradient-8);}.cls-28{fill:#ffd327;}.cls-29{stroke:#fff;stroke-linecap:round;stroke-miterlimit:10;}.cls-30{fill:url(#linear-gradient-9);}.cls-31{fill:url(#linear-gradient-10);}.cls-32{fill:#8b5e3c;}.cls-33{fill:url(#linear-gradient-11);}.cls-34{fill:url(#linear-gradient-12);}.cls-35{fill:url(#linear-gradient-13);}.cls-36{fill:url(#linear-gradient-14);}.cls-37{fill:url(#linear-gradient-15);}.cls-38{fill:url(#linear-gradient-16);}.cls-39{fill:url(#linear-gradient-17);}.cls-40{fill:url(#linear-gradient-18);}.cls-41{fill:url(#linear-gradient-19);}.cls-42{fill:url(#linear-gradient-20);}</style><linearGradient id="linear-gradient" x1="1201.53" y1="1762.81" x2="1588.23" y2="1762.81" gradientTransform="matrix(-0.54, -0.84, -0.84, 0.54, 3958.91, 921.2)" gradientUnits="userSpaceOnUse"><stop offset="0.1" stop-color="#f6895c"/><stop offset="0.95" stop-color="#f16680"/></linearGradient><linearGradient id="linear-gradient-2" x1="1218.21" y1="1810.19" x2="1478.46" y2="1810.19" gradientTransform="matrix(-0.54, -0.84, -0.84, 0.54, 3958.91, 921.2)" gradientUnits="userSpaceOnUse"><stop offset="0.1" stop-color="#f6895c"/><stop offset="0.95" stop-color="#ef4136"/></linearGradient><linearGradient id="linear-gradient-3" x1="1262.63" y1="1887.51" x2="1358.31" y2="1887.51" xlink:href="#linear-gradient-2"/><linearGradient id="linear-gradient-4" x1="488.54" y1="263.13" x2="771.21" y2="263.13" gradientTransform="translate(-352.13 798.9) rotate(-28.3)" xlink:href="#linear-gradient"/><linearGradient id="linear-gradient-5" x1="630.8" y1="334.02" x2="848.95" y2="334.02" gradientTransform="matrix(1, 0, 0, 1, 0, 0)" xlink:href="#linear-gradient"/><clipPath id="clip-path" transform="translate(-151.25 -200.66)"><path class="cls-1" d="M1723.71,1242.75H282.53S103.09,938.87,353.73,834.5,672.73,757.76,667,592,786.66,325,889.19,377.14,1080,561.31,1239.52,481.5,1626.87,414,1621.17,668.74s76.91,245.57,142.41,285.48S1911.69,1132.25,1723.71,1242.75Z"/></clipPath><linearGradient id="linear-gradient-6" x1="683.28" y1="1032.05" x2="1037.09" y2="1032.05" gradientUnits="userSpaceOnUse"><stop offset="0.1" stop-color="#1b75bc"/><stop offset="0.27" stop-color="#1c71b7"/><stop offset="0.47" stop-color="#1d65aa"/><stop offset="0.68" stop-color="#205094"/><stop offset="0.89" stop-color="#243476"/><stop offset="1" stop-color="#262262"/></linearGradient><linearGradient id="linear-gradient-7" x1="780.22" y1="705.21" x2="720.69" y2="645.68" gradientUnits="userSpaceOnUse"><stop offset="0.1" stop-color="#ffda8b"/><stop offset="0.25" stop-color="#fed589"/><stop offset="0.41" stop-color="#fdc884"/><stop offset="0.58" stop-color="#fab27c"/><stop offset="0.76" stop-color="#f79371"/><stop offset="0.94" stop-color="#f36c62"/><stop offset="1" stop-color="#f15e5d"/></linearGradient><linearGradient id="linear-gradient-8" x1="797.59" y1="595.37" x2="748.07" y2="509.6" gradientTransform="translate(-34.04 113.6) rotate(-3.57)" gradientUnits="userSpaceOnUse"><stop offset="0.1" stop-color="#ffda8b"/><stop offset="0.25" stop-color="#fed589"/><stop offset="0.42" stop-color="#fdc884"/><stop offset="0.59" stop-color="#fab27b"/><stop offset="0.77" stop-color="#f7946f"/><stop offset="0.88" stop-color="#f47e67"/><stop offset="1" stop-color="#f15e5d"/></linearGradient><linearGradient id="linear-gradient-9" x1="746.02" y1="825.56" x2="945.39" y2="825.56" xlink:href="#linear-gradient-7"/><linearGradient id="linear-gradient-10" x1="642.13" y1="837.63" x2="894.59" y2="837.63" xlink:href="#linear-gradient-7"/><linearGradient id="linear-gradient-11" x1="1137.18" y1="1073.61" x2="1356.42" y2="1073.61" xlink:href="#linear-gradient-7"/><linearGradient id="linear-gradient-12" x1="1208.91" y1="1194.32" x2="1219.34" y2="1194.32" xlink:href="#linear-gradient-7"/><linearGradient id="linear-gradient-13" x1="1237.81" y1="1086.49" x2="1447.36" y2="1086.49" xlink:href="#linear-gradient-7"/><linearGradient id="linear-gradient-14" x1="1157.65" y1="792.91" x2="1399.68" y2="792.91" xlink:href="#linear-gradient-7"/><linearGradient id="linear-gradient-15" x1="1221.44" y1="745.91" x2="1242.14" y2="745.91" xlink:href="#linear-gradient-7"/><linearGradient id="linear-gradient-16" x1="1409.87" y1="688.11" x2="1478.41" y2="688.11" xlink:href="#linear-gradient-7"/><linearGradient id="linear-gradient-17" x1="1420.05" y1="748.38" x2="1492.91" y2="748.38" gradientTransform="translate(76.06 -261.64) rotate(5.94)" xlink:href="#linear-gradient-7"/><linearGradient id="linear-gradient-18" x1="1397.06" y1="801.76" x2="1500.4" y2="801.76" gradientUnits="userSpaceOnUse"><stop offset="0" stop-color="#97ccee"/><stop offset="0.18" stop-color="#93cbee"/><stop offset="0.37" stop-color="#86c7ec"/><stop offset="0.57" stop-color="#71c1ea"/><stop offset="0.77" stop-color="#54b8e6"/><stop offset="0.96" stop-color="#2face2"/><stop offset="1" stop-color="#27aae1"/></linearGradient><linearGradient id="linear-gradient-19" x1="1488.4" y1="901.52" x2="1403.75" y2="754.91" xlink:href="#linear-gradient-7"/><linearGradient id="linear-gradient-20" x1="1293.16" y1="871.67" x2="1373.15" y2="871.67" xlink:href="#linear-gradient-7"/></defs><title>Business Meeting Illustration</title><g class="cls-2"><g id="Illustration"><path class="cls-3" d="M1664.34,970.79s193.17-207.59,205.25-255.66,5.68-89.24-39.31-82.89-58.22,2.29-32.89-29.15,40.95-132.11-24-143.1-68.3,59.13-70.55,88.29-3.5,70.19-19,50-31.76-45-45.49-23.54,23.06,70.72,30.09,109-4.37,55.7-22.82,34.87S1574.34,694,1582,729.35,1642.54,937,1642.54,937Z" transform="translate(-151.25 -200.66)"/><path class="cls-4" d="M1663.29,942c2.43-4.79,4.87-10.82,7.94-17.64s5.9-14.75,9.23-23.32,6.36-18.06,9.76-28,6.53-20.61,9.88-31.57c.32-1,.62-2.09.91-3.13,3.25-2.1,7.94-5.24,13.49-9.26,5.34-3.82,11.45-8.4,17.86-13.47,3.18-2.55,6.57-5.1,9.84-7.89s6.65-5.5,10-8.29,6.59-5.71,9.82-8.53,6.32-5.7,9.35-8.42c6-5.51,11.57-10.79,16.21-15.45,9.3-9.22,15-16,15-16s-7.58,4.59-18.19,12.27c-5.33,3.8-11.44,8.4-17.85,13.46-3.2,2.56-6.58,5.11-9.84,7.87s-6.66,5.5-10,8.32-6.57,5.68-9.82,8.51-6.33,5.7-9.35,8.43c-6.06,5.51-11.57,10.78-16.2,15.43-3.79,3.75-6.92,7-9.37,9.66,2.64-9,5.25-18.18,7.83-27.56,3.08-11.65,6.2-23.48,9.31-35.3,5.85-23.76,11.57-47.52,16.42-69.92s9.18-43.35,12.58-61.38,5.91-33.07,7.79-43.63,2.61-16.6,2.61-16.6-1.53,5.92-4.23,16.28-6.39,25.16-10.9,42.94c-6.53,26.19-14.67,58.84-23.22,93.17,0-.4-.06-.79-.11-1.19-.4-4.8-1-10.35-1.9-16.24s-1.92-12.22-3.16-18.45-2.69-12.47-4.18-18.26-3-11.17-4.43-15.74a157.87,157.87,0,0,0-5.48-15.15,153.36,153.36,0,0,0,.72,16.09c.41,4.78,1,10.33,1.92,16.24s1.91,12.23,3.15,18.47,2.66,12.46,4.14,18.24,3,11.17,4.45,15.76c1,3.23,2,6,2.84,8.38q-3.6,14.37-7.21,28.92c-3,11.82-6,23.62-9,35.25s-6.07,23-9,34.07c-3.15,11-5.76,21.74-8.75,31.76s-5.47,19.64-8.32,28.31Q1673.82,906,1672,912c-1.16,4-2.4,7.73-3.66,11.23-2.53,7-4.48,13.17-6.52,18.09-4.19,9.79-6.5,15.49-6.5,15.49S1658.25,951.45,1663.29,942Z" transform="translate(-151.25 -200.66)"/><path class="cls-5" d="M1642,798.67a136.4,136.4,0,0,0,4.2,14.69c1.42,4.31,3.25,9.31,5.37,14.56s4.49,10.83,7,16.27,5.29,10.85,8,15.86,5.31,9.59,7.73,13.45a134.12,134.12,0,0,0,8.6,12.64,140.41,140.41,0,0,0-4.21-14.69c-1.41-4.34-3.24-9.31-5.36-14.56s-4.49-10.82-7-16.27-5.29-10.85-8-15.85-5.31-9.59-7.72-13.47A142.84,142.84,0,0,0,1642,798.67Z" transform="translate(-151.25 -200.66)"/><path class="cls-6" d="M308.28,616.61q-1.62-8.11-3.07-15.33c-1-4.82-1.56-9.39-2.31-13.58s-1.39-8.06-1.79-11.57c-.64-4.61-1.16-8.47-1.55-11.73,7.08-8.86,57.27-77-.6-158.12,0,0-79.83,73.92-1,158.28-.1,3.26-.18,7.18-.16,11.79,0,7.14.35,15.79.89,25.72.38,4.95.81,10.22,1.26,15.77s1.89,11.28,2.87,17.32c.91,4.68,1.77,9.58,2.74,14.57-3.76-3.87-8.71-9-13.7-14.09-2.5-2.57-5-5.16-7.37-7.55-.91-.86-1.77-1.7-2.62-2.53-1.49-122-90.71-128.39-90.71-128.39,17.52,126.67,70.24,131.45,86.15,129.89,1.33,1.29,2.75,2.64,4.25,4.08,2.34,2.4,4.86,5,7.32,7.5l13.68,14.07c.53.44.8,1,1.37,1.35s1.06.62,1.55.93l1.31.75c1.36,5.85,2.76,11.83,4.17,18,.81,3.41,1.53,6.88,2.46,10.36s2,6.94,3,10.47q3,10.6,6.16,21.63c2.39,7.36,4.67,14.58,7.3,22,1.25,3.52,2.56,7.07,3.84,10.62a30,30,0,0,0-1.94-2.62L328,741.42,320.62,732c-2.51-2.9-4.87-5.6-6.88-7.93a18,18,0,0,0-1.45-1.63c-.58-.42-1.15-.8-1.66-1.19s-.87-.56-1.31-.84c-4.83-18.4-29.56-90.33-122.57-96,0,0,7.23,108.4,122.16,100.36a4.14,4.14,0,0,1,.29.55,15,15,0,0,0,1.41,1.62c2,2.28,4.28,4.94,6.77,7.77,2.31,3,4.8,6.14,7.27,9.36,1.23,1.57,2.47,3.17,3.7,4.72a50.6,50.6,0,0,1,3.34,4.74c2.08,3.17,4,6.11,5.66,8.62a9.68,9.68,0,0,0,1.21,1.79l.9.85c5,13.62,10.1,27.32,14.31,41.25,2.51,7.62,4.39,15.4,6.41,23.09,1,3.86,1.63,7.79,2.47,11.63s1.66,7.75,2.12,11.65c.11.89.23,1.73.36,2.63-.33-.5-.66-1-1-1.51a77.56,77.56,0,0,0-5-6.67c-1.73-2.34-3.9-4.43-5.92-6.73-2.17-2.12-4.38-4.31-6.76-6.31-2.29-1.72-4.47-3.62-6.89-5.12.51-.26,1-.43,1.53-.66,0,0-40.49-85.33-134.78-57.09,0,0,35,99,128.58,59.76l1.74,1.1a72.76,72.76,0,0,1,7.08,5.25c2.27,1.9,4.38,4,6.47,6,1.93,2.19,4,4.2,5.66,6.45a80,80,0,0,1,4.84,6.42c1.52,2.07,2.75,4.15,3.94,6,.65.93,1,2,1.64,2.77l.28.36c.43,3.5.84,7,1,10.5.29,3.83.61,7.64.9,11.43.14,3.81.14,7.61.21,11.34s.13,7.47.19,11.16c-.13,3.69-.27,7.35-.42,11-.33,7.23-.47,14.3-1.27,21.16s-1.32,13.54-1.94,20c-.23,1.51-.44,3-.67,4.52-.51-1.38-1.06-2.76-1.7-4.11A63.48,63.48,0,0,0,353.06,947c-.41-.42-.65-1-1.15-1.3s-1-.59-1.43-.85c-.6-.34-1.09-.57-1.6-.82C346.82,934.22,329,863,248.1,864.5c0,0,6.34,95.34,99.17,80.85.27.54.53,1.06.84,1.71.23.44.45.92.69,1.42s.76.77,1.08,1.24A59.14,59.14,0,0,1,359,963.8a47.43,47.43,0,0,1,3,8.39,35.31,35.31,0,0,1,.9,4c0,.21,0,.37.07.56-.16,1.18-.33,2.34-.49,3.49-.44,3-.87,5.91-1.32,8.77s-1.08,5.59-1.37,8.33q-1,8.22-1.92,15.55c-1.08,9.8-2.55,18.25-3.7,25.24-2.25,14-3.38,22.06-3.38,22.06s2.42-7.73,6.46-21.36c2-6.83,4.54-15.09,6.84-24.74.85-3.31,1.73-6.81,2.66-10.42.29-.17.52-.33.84-.54l1.42-.93c.51-.3.75-.91,1.22-1.35a23.87,23.87,0,0,1,2.75-2.93l3.41-3c1.21-1,2.36-2.16,3.67-3.17s2.76-1.84,4.14-2.77a29.88,29.88,0,0,1,4.22-2.62c1.46-.78,2.91-1.53,4.26-2.22a31.9,31.9,0,0,1,4.15-1.81c1.34-.49,2.56-1.11,3.76-1.42a10.05,10.05,0,0,0,1.73-.52c.25-.17.47-.32.74-.47,17,2.38,95,8.26,136-77.36,0,0-102.11-33.66-138.37,73.89-.44.13-.9.34-1.4.44-1.28.36-2.57,1-4,1.5a40.89,40.89,0,0,0-4.38,1.9c-1.47.76-3,1.56-4.54,2.38a37.1,37.1,0,0,0-4.47,2.76c-1.47,1-2.92,2-4.37,3s-2.62,2.23-3.88,3.31l-3.59,3.15a10.43,10.43,0,0,0-1.49,1.48c1-4.71,1.47-9.73,2.3-14.86.87-6,1.77-12.34,2.74-18.86.61-6.57,1.28-13.35,1.95-20.32s1-14.19,1.29-21.56c.14-3.67.28-7.4.44-11.15,0-1.93-.06-3.91-.09-5.85.21-.12.39-.23.61-.33.39-.23.48-.7.81-1,2.15-2.75,5-6.42,7.89-10.07l7.9-10.11c.16-.26.39-.45.55-.67,20.59-5.58,89.22-30.87,95.41-121.44,0,0-108.86,6.44-101.24,122-1.81,2.31-3.87,5-5.93,7.58s-4.27,5.44-6.13,7.8c-.05-3.62-.06-7.25-.2-10.94q-.47-5.83-.92-11.74c-.4-7.91-1.73-15.81-2.82-23.83-.48-4-1.41-7.94-2.18-11.94s-1.53-8-2.53-12c-1.55-5.87-3.09-11.78-4.79-17.64a19.12,19.12,0,0,0,0-2c0-3.81-.37-8.22-.11-13s.27-9.89.68-15c.59-10.2,1.63-20.39,2.44-28a25,25,0,0,0,.28-2.74c0-.49,0-1-.09-1.42,9.85-6.47,81.45-57.51,36.37-147.34,0,0-98.26,78.3-39.62,145.58a1.71,1.71,0,0,1-.09.27c-.25.77-.49,1.58-.76,2.44s-.13,1.8-.29,2.76c-.84,7.69-1.88,17.93-2.48,28.24-.41,5.14-.5,10.33-.67,15.18,0,.35,0,.69,0,1-4.18-12.83-8.87-25.36-13.39-37.72-2.79-7.46-5.42-14.87-8-22.14s-4.95-14.78-7.26-21.84l-6.06-21.37c-1-3.48-2-6.94-2.95-10.35s-1.61-6.85-2.42-10.21c-1.39-6-2.74-11.88-4.06-17.61a40.27,40.27,0,0,1,.37-5.09,82.38,82.38,0,0,1,2.45-13c.5-2.11,1.28-4.12,1.89-6.11a92,92,0,0,1,4.52-10.45c.33-.76.85-1.37,1.09-2.11s.47-1.47.66-2.11a.4.4,0,0,0,0-.13c16.05-7.2,66.9-35.75,44.65-100.4,0,0-74.52,27.31-49.57,101.51a9.16,9.16,0,0,1-.63,1.3,95,95,0,0,0-4.74,11c-.65,2.09-1.46,4.19-2,6.42-.56,2-1,3.95-1.37,6-.45-2.45-.87-4.88-1.33-7.25C310,627.74,309.27,622,308.28,616.61Z" transform="translate(-151.25 -200.66)"/><path class="cls-7" d="M1748.7,1234.06H217.35S26.69,930.17,293,825.81s339-76.74,332.9-242.5S753,316.25,862,368.44s202.77,184.17,372.24,104.36,411.59-67.53,405.54,187.25,81.71,245.56,151.32,285.47S1948.44,1123.55,1748.7,1234.06Z" transform="translate(-151.25 -200.66)"/><path class="cls-8" d="M1723.71,1242.75H282.53S103.09,938.87,353.73,834.5,672.73,757.76,667,592,786.66,325,889.19,377.14,1080,561.31,1239.52,481.5,1626.87,414,1621.17,668.74s76.91,245.57,142.41,285.48S1911.69,1132.25,1723.71,1242.75Z" transform="translate(-151.25 -200.66)"/><polygon class="cls-9" points="836.68 944.31 843.28 989.27 878.21 985.79 870.67 939.67 836.68 944.31"/><path class="cls-10" d="M1030.35,1187.82a1.64,1.64,0,0,1-.73.26l-34.92,3.48a1.63,1.63,0,0,1-1.78-1.39l-6.61-45a1.66,1.66,0,0,1,1.4-1.86l34-4.63a1.63,1.63,0,0,1,1.83,1.35l7.53,46.12a1.63,1.63,0,0,1-.31,1.26A1.81,1.81,0,0,1,1030.35,1187.82Zm-34.42.34,31.64-3.16-7-42.83-30.79,4.2Z" transform="translate(-151.25 -200.66)"/><path class="cls-11" d="M981.12,1169.59l53.36-4.24s35.2,37.33,40.91,38.67,55.53,3.68,41.71,26c-6.59,10.65-132.21,4.88-132.21,4.88Z" transform="translate(-151.25 -200.66)"/><path class="cls-10" d="M1117,1232.67c-14.43,9.41-127.39,4.35-132.19,4.13A1.86,1.86,0,0,1,983,1235l-3.78-65.35a1.87,1.87,0,0,1,1.71-1.94l53.36-4.24a1.85,1.85,0,0,1,1.34.42c13,11,36.29,37.39,40.14,38.29.7.16,2.36.37,4.45.63,11.3,1.42,34.82,4.36,40,15.29,1.84,3.84,1.29,8.18-1.63,12.9A5.49,5.49,0,0,1,1117,1232.67Zm-130.33.5c33.59,1.48,117.34,3.54,128.3-3.61a1.73,1.73,0,0,0,.55-.48c2.24-3.63,2.72-6.69,1.44-9.35-4.35-9.11-27.34-12-37.16-13.21-2.29-.28-4-.49-4.84-.7-5.66-1.32-34.2-32.79-41.09-38.57l-50.82,4Z" transform="translate(-151.25 -200.66)"/><path class="cls-10" d="M1118.72,1220a1.75,1.75,0,0,1-.5.23c-28.21,8.22-129.82,4.86-134.13,4.72a1.87,1.87,0,0,1-1.79-1.92,1.85,1.85,0,0,1,1.92-1.79c1,0,105.32,3.48,133-4.57a1.85,1.85,0,0,1,1.53,3.33Z" transform="translate(-151.25 -200.66)"/><path class="cls-10" d="M1100,1210a.83.83,0,0,1-.34.13c-38.72,6.7-78.17-40.37-78.53-40.77a.92.92,0,0,1,1.38-1.23c.36.39,39.13,46.69,76.83,40.18a.93.93,0,0,1,.66,1.69Z" transform="translate(-151.25 -200.66)"/><path class="cls-12" d="M849,334A109.08,109.08,0,1,1,739.88,224.94,109.07,109.07,0,0,1,849,334Z" transform="translate(-151.25 -200.66)"/><g class="cls-13"><g class="cls-14"><path class="cls-7" d="M385.17,1414.46l-40.81-3.12c.24-3.15,6.2-78.38,32.17-169.57,15.34-53.86,34.52-102.07,57-143.29,28.62-52.44,62.79-93.8,101.56-122.92,64-48,174.94-235.53,261.41-217.44,95.26,19.94,201.93,100.52,316.46,153.3,7.63,3.52,15.3,6.91,22.41,10,29.44,11.68,60.13,20.89,90.53,28.71,7.23,1.64,14.17,3,21.14,4.22s14,2.21,21,3q5.85.66,11.7,1.13a311.59,311.59,0,0,0,47.14,0q5.89-.5,11.8-1.28t11.8-1.85l7.67-.71q11.89-1.11,23.59-2.36l7.76-.84c10.62-1,20.85-2,30.62-3.64l7.53-1c177.64-23.43,314.14-69.24,390.36-132,49.24-40.52,73.87-88.44,73.19-142.43l40.92-.51c.84,67-28.8,125.74-88.11,174.54-6.91,5.69-12.8,13.26-18,22.17-1.75,3-3.42,6.1-5,9.35-4.4,8-8.49,17.23-6.45,26.44,3.07,11.25,13.3,20.46,8.19,31.71-14.33,30.69-45,49.11-58.54,80.71-2.2,3.52-4.5,6.92-6.93,10.2s-5,6.42-7.66,9.42a108.34,108.34,0,0,1-8.06,8.12c-41.66,30.59-96,31.79-147.21,20.17q-5.91-1.35-11.78-2.9c-36.06-10.11-70.84-19.32-105.63-30.57-55.25-18.42-111.52-22.51-168.81-23.53-9.21,0-18.41-5.12-28.64-7.16-16.37-3.07-31.72,1-47.38,4.85-3.47.33-7.17.37-10.91.36-44.85,0-89.6,1.07-134.47-1.21l-6.53-.16c-119.66-3.06-234.62-14.68-326.68-34-74.43-15.58-87,137.79-141.09,178.45C461.86,1262,385.39,1411.54,385.17,1414.46Z" transform="translate(-151.25 -200.66)"/></g></g><g class="cls-15"><circle class="cls-8" cx="1550.41" cy="290.07" r="87.2" transform="translate(887.52 1581.43) rotate(-81.67)"/><path class="cls-8" d="M1550.41,379.47a89.41,89.41,0,1,1,89.4-89.4A89.5,89.5,0,0,1,1550.41,379.47Zm0-174.4a85,85,0,1,0,85,85A85.1,85.1,0,0,0,1550.41,205.07Z" transform="translate(-151.25 -200.66)"/><path class="cls-7" d="M1629.1,290.07a78.7,78.7,0,1,1-78.69-78.71A78.7,78.7,0,0,1,1629.1,290.07Z" transform="translate(-151.25 -200.66)"/><path class="cls-8" d="M1550.41,372.55a82.48,82.48,0,1,1,82.47-82.48A82.58,82.58,0,0,1,1550.41,372.55Zm0-157.42a74.94,74.94,0,1,0,74.93,74.94A75,75,0,0,0,1550.41,215.13Z" transform="translate(-151.25 -200.66)"/><line class="cls-7" x1="1399.15" y1="25.18" x2="1399.15" y2="154.49"/><path class="cls-16" d="M1550.41,358.93a3.78,3.78,0,0,1-3.78-3.78V225.84a3.77,3.77,0,1,1,7.54,0V355.15A3.77,3.77,0,0,1,1550.41,358.93Z" transform="translate(-151.25 -200.66)"/><line class="cls-7" x1="1463.81" y1="89.84" x2="1334.49" y2="89.84"/><path class="cls-16" d="M1615.06,294.27H1485.74a3.77,3.77,0,0,1,0-7.54h129.32a3.77,3.77,0,1,1,0,7.54Z" transform="translate(-151.25 -200.66)"/><path class="cls-7" d="M1608.24,290.5a57.84,57.84,0,1,1-57.83-57.84A57.83,57.83,0,0,1,1608.24,290.5Z" transform="translate(-151.25 -200.66)"/><path class="cls-8" d="M1550.41,350.21a59.72,59.72,0,1,1,59.71-59.71A59.79,59.79,0,0,1,1550.41,350.21Zm0-115.66a55.95,55.95,0,1,0,55.95,55.95A56,56,0,0,0,1550.41,234.55Z" transform="translate(-151.25 -200.66)"/><path class="cls-8" d="M1550.41,350.76a60.27,60.27,0,1,1,60.27-60.26A60.34,60.34,0,0,1,1550.41,350.76Zm0-119.43a59.17,59.17,0,1,0,59.16,59.17A59.24,59.24,0,0,0,1550.41,231.33Zm0,115.66a56.5,56.5,0,1,1,56.5-56.49A56.56,56.56,0,0,1,1550.41,347Zm0-111.89a55.4,55.4,0,1,0,55.4,55.4A55.47,55.47,0,0,0,1550.41,235.1Z" transform="translate(-151.25 -200.66)"/><line class="cls-10" x1="1398.98" y1="42.79" x2="1398.98" y2="98.19"/><path class="cls-8" d="M1550.23,302.62a3.77,3.77,0,0,1-3.77-3.77v-55.4a3.77,3.77,0,0,1,7.54,0v55.4A3.77,3.77,0,0,1,1550.23,302.62Z" transform="translate(-151.25 -200.66)"/><path class="cls-16" d="M1549.38,303.51a2.93,2.93,0,0,1-2.07-5l24.57-24.57a2.93,2.93,0,0,1,4.14,4.14l-24.57,24.57A2.92,2.92,0,0,1,1549.38,303.51Z" transform="translate(-151.25 -200.66)"/></g><polygon class="cls-17" points="1048.81 1038.79 962.61 952.59 962.61 689.05 929.96 689.05 929.96 952.59 843.75 1038.79 882.92 1039.51 929.96 992.47 929.96 994.57 962.61 994.57 962.61 992.47 1009.65 1039.51 1048.81 1038.79"/><path class="cls-18" d="M746.77,1246.71a11.66,11.66,0,0,1-1.18-.06,11.43,11.43,0,0,1-10.2-12.54l22.85-222.36a11.42,11.42,0,1,1,22.73,2.33l-22.85,222.36A11.43,11.43,0,0,1,746.77,1246.71Z" transform="translate(-151.25 -200.66)"/><path class="cls-18" d="M602.54,1246.71a11.44,11.44,0,0,1-10.86-15l72.38-220.4a11.43,11.43,0,0,1,21.72,7.13l-72.38,220.4A11.44,11.44,0,0,1,602.54,1246.71Z" transform="translate(-151.25 -200.66)"/><path class="cls-18" d="M936.14,1246.71a11.43,11.43,0,0,1-10.86-7.87l-72.38-220.4a11.43,11.43,0,0,1,21.72-7.13L947,1231.71a11.44,11.44,0,0,1-10.86,15Z" transform="translate(-151.25 -200.66)"/><path class="cls-18" d="M758.5,1122.08h-.07c-.43,0-.84.05-1.13-.27L665,1020.75a1.56,1.56,0,0,1,.1-2.25,1.64,1.64,0,0,1,2.31.14l91.18,100,106.36-98a1.63,1.63,0,1,1,2.21,2.41l-107.56,98.8C759.31,1122.19,758.91,1122.08,758.5,1122.08Z" transform="translate(-151.25 -200.66)"/><path class="cls-18" d="M642.82,1122.6a1.63,1.63,0,0,1-1-2.95l123.32-90.31a1.64,1.64,0,0,1,1.88,0l131.66,87.88a1.63,1.63,0,0,1-1.81,2.72l-130.72-87.25-122.4,89.64A1.64,1.64,0,0,1,642.82,1122.6Z" transform="translate(-151.25 -200.66)"/><path class="cls-16" d="M628.94,799.37S585.06,1016,697.16,1013.79s215.16,0,215.16,0v-49L821.65,788.44Z" transform="translate(-151.25 -200.66)"/><g class="cls-19"><path class="cls-7" d="M767.5,1000.11c-42.34,0-73.16-9.62-91.73-28.66-17.86-18.32-17.56-38.72-17.45-41.17l-6.25-114.22a3.26,3.26,0,1,1,6.52-.36l6.27,114.59v.2c0,.18-.93,19.55,15.72,36.52,18.88,19.26,51.9,28.11,98.15,26.35a3.27,3.27,0,1,1,.25,6.53C775.06,1000,771.23,1000.11,767.5,1000.11Z" transform="translate(-151.25 -200.66)"/></g><polyline class="cls-20" points="582.99 484.97 497 500.76 481.76 589.46 508.98 609.05 525.44 703.74 686.66 705.78 686.93 591.09 735.63 575.58 685.02 493.95 616.45 480.07"/><path class="cls-21" d="M699.31,747.89c-1.7.34.51,57.12.51,57.12s-32.07-2.88-33.76,5.12c-6.47,30.78,9.21,101.76,9.21,95.15,0-.34,153.46,3.07,153.46,3.07S701.78,747.4,699.31,747.89Z" transform="translate(-151.25 -200.66)"/><polygon class="cls-9" points="686.95 921.84 667.9 963.11 699.05 979.28 717.95 936.55 686.95 921.84"/><path class="cls-10" d="M850.3,1181.58a1.55,1.55,0,0,1-.75-.19l-31.15-16.17a1.64,1.64,0,0,1-.73-2.14l19.05-41.26a1.63,1.63,0,0,1,2.18-.79l31,14.71a1.63,1.63,0,0,1,.79,2.13l-18.9,42.74a1.7,1.7,0,0,1-1,.88A1.91,1.91,0,0,1,850.3,1181.58Zm-29-18.54,28.22,14.66L867.07,1138,839,1124.69Z" transform="translate(-151.25 -200.66)"/><path class="cls-11" d="M819,1139.4,866,1165s9.07,50.51,13.12,54.75,44.49,33.44,20.69,44.6c-11.34,5.33-113.37-68.18-113.37-68.18Z" transform="translate(-151.25 -200.66)"/><path class="cls-10" d="M898.34,1266.5c-17.23,0-109.05-66-113-68.81a1.86,1.86,0,0,1-.52-2.45l32.57-56.78a1.84,1.84,0,0,1,2.48-.69l47,25.61a1.87,1.87,0,0,1,.89,1.1c4.92,16.29,9.95,51.14,12.68,54,.49.53,1.77,1.6,3.38,3,8.69,7.36,26.78,22.68,25.18,34.7-.56,4.21-3.4,7.55-8.42,9.91A5.39,5.39,0,0,1,898.34,1266.5Zm-109.41-70.83c27.32,19.6,96.32,67.11,109.41,67.11a1.67,1.67,0,0,0,.72-.1c3.86-1.81,5.93-4.11,6.32-7,1.33-10-16.35-25-23.9-31.38-1.76-1.49-3-2.57-3.67-3.24-4-4.2-10.71-46.15-13.32-54.75l-44.77-24.39Z" transform="translate(-151.25 -200.66)"/><path class="cls-10" d="M906.71,1256.83a2,2,0,0,1-.54-.08c-28.12-8.55-111.37-66.91-114.9-69.38a1.87,1.87,0,0,1-.45-2.59,1.85,1.85,0,0,1,2.58-.45c.86.6,86.3,60.5,113.85,68.87a1.86,1.86,0,0,1-.54,3.63Z" transform="translate(-151.25 -200.66)"/><path class="cls-10" d="M896.52,1238.19a.9.9,0,0,1-.36-.08c-36.09-15.56-43.39-76.53-43.47-77.06a.93.93,0,1,1,1.83-.28c.08.52,7.24,60.48,42.37,75.64a.93.93,0,0,1-.37,1.78Z" transform="translate(-151.25 -200.66)"/><rect class="cls-20" x="390.9" y="1151.96" width="106.36" height="18.73" transform="translate(-165.49 -195.12) rotate(-0.7)"/><path class="cls-9" d="M497.5,1180l-.13-10L391,1171.33l.13,10,6.29-.07a46.81,46.81,0,0,0,16.48,58.14l.1,8.68,62.24-.77-.11-8.67.51-.39a46.83,46.83,0,0,0,18.84-32c.16-1.38.27-2.76.32-4.17,0-.71.05-1.44,0-2.17a46.77,46.77,0,0,0-4.65-19.78Z" transform="translate(-151.25 -200.66)"/><path class="cls-8" d="M461.65,1238.06l14-.25c5.78-7.41,15.88-18.83,16.74-31.94.09-1.37.14-2.75.16-4.16,0-.71,0-1.44,0-2.17a77.52,77.52,0,0,0-2.76-19.8l-24.75.31S473.19,1222.31,461.65,1238.06Z" transform="translate(-151.25 -200.66)"/><path class="cls-22" d="M455.17,1116.91a342.48,342.48,0,0,0-1-55.59c-3-30.47.17-32.84,18.09-62.75s11.31-44.08,22.06-67.21,6-16.61,27.82-34.55S568.7,882,576.34,857.73c0,0-7.63,50.1-15.45,81.35s-9.23,44.83-26,58.7S513,1019.22,508.56,1054s-30.36,64.19-39.23,69.2S455.17,1116.91,455.17,1116.91Z" transform="translate(-151.25 -200.66)"/><path class="cls-23" d="M461.58,1111l26.18-84.85s10.7-41.78,6-51.76S465,932.55,461.14,918.24s-2.53-32.07-1.61-53.3-20.43-71.74-21.27-78.67-4.45,49.8-16.4,69.92-26.05,22.92-21.56,45.23-12,42.65-15.29,58.89-8.56,47.86,6.95,88.19,30.76,86.59,47.64,92.26S461.12,1118.83,461.58,1111Z" transform="translate(-151.25 -200.66)"/><path class="cls-22" d="M422.48,1126.21s17.88-30.37,9.31-47.93S405,1064.17,404,1031.2s7.72-37.66-1-54.06-37.44-41.43-75.64-35.84c-38.37,5.62-61.71,64.51-61.71,64.51s32.44-39.08,49.82-26.23,15.72,15,15.38,27.84,20.12,33.16,32.44,43,2.11,16.93,3.95,44.13S399.35,1136.06,422.48,1126.21Z" transform="translate(-151.25 -200.66)"/><path class="cls-24" d="M443.28,1114.67a202.56,202.56,0,0,0-3.09-31.14c-1.91-9.83-4-33.8-6-57-1.1-12.55-2.24-25.51-3.33-36.07-1.39-13.43-2.43-21.14-3.44-28.58-1.26-9.32-2.45-18.11-4.2-37-3.17-34.33,15.12-63,15.9-64.16l2.74,1.78c-.19.28-18.45,28.91-15.39,62.08,1.74,18.83,2.93,27.59,4.19,36.86,1,7.48,2.06,15.21,3.45,28.69,1.09,10.58,2.23,23.57,3.33,36.13,2,23.1,4.12,47,6,56.64a207.37,207.37,0,0,1,3.15,31.72Z" transform="translate(-151.25 -200.66)"/><path class="cls-7" d="M466.94,1107.22l-3.19-.7c4.35-19.79,36.25-118.44,45.88-131.16,9.2-12.13,32.94-67.23,33.18-67.78l3,1.29c-1,2.28-24.13,56-33.56,68.46C503.28,989.15,471.89,1084.74,466.94,1107.22Z" transform="translate(-151.25 -200.66)"/><path class="cls-25" d="M983.13,1162.74,928.35,989.92,683.28,923.86l112.2-22.5s189.91,19.31,194.73,33.42,46.88,220.77,46.88,220.77Z" transform="translate(-151.25 -200.66)"/><path class="cls-26" d="M734.6,631.77,732,689.35s15.12,25.28,31.89,23.77c18.7-1.69,22.57-19.59,22.57-19.59l-10-27.21" transform="translate(-151.25 -200.66)"/><path class="cls-9" d="M826.51,1127.19l63.23-133.81s-122.87,9.06-175.1-8.35S676,902.94,676,902.94H804.66s153.52,36.29,160.05,58.6c6.12,20.91-86.8,188.77-86.8,188.77Z" transform="translate(-151.25 -200.66)"/><path class="cls-9" d="M877.91,1153.58a3.17,3.17,0,0,1-1.34-.29l-51.39-23.12a3.26,3.26,0,0,1-1.62-4.37L884.42,997c-10.83.67-36.22,2-64.88,2-48.64,0-84.29-3.66-105.94-10.88-54.36-18.11-41-85.18-40.81-85.85a3.26,3.26,0,0,1,3.2-2.6H804.66a3.2,3.2,0,0,1,.75.09c25.94,6.14,155.72,37.89,162.44,60.87,6.31,21.59-77.51,174-87.09,191.26A3.26,3.26,0,0,1,877.91,1153.58Zm-47-28,45.62,20.53c35.69-64.69,89.19-169.56,85.07-183.64-4.36-14.89-98.63-42.36-157.3-56.26H678.72c-1.88,12-6.71,61.18,36.95,75.73,20.68,6.9,56.6,10.54,103.87,10.54,37.68,0,69.65-2.32,70-2.34a3.22,3.22,0,0,1,2.94,1.4,3.29,3.29,0,0,1,.26,3.24Z" transform="translate(-151.25 -200.66)"/><path class="cls-9" d="M792,602.25c-5.71,22.36-46.06,64.81-62.07,48.15-3.4-3.54-23.15-43.86-23.4-46.8-1.92-23-11.42-60.82,45.72-58C786.91,547.38,797.67,579.88,792,602.25Z" transform="translate(-151.25 -200.66)"/><path class="cls-27" d="M795.25,576.3s13.81,94-17.08,92.77-37-34.91-37-34.91-10.1,1.89-14.7-10.6.36-17.74.36-17.74l14.22,8.8-5.35-33.23Z" transform="translate(-151.25 -200.66)"/><rect class="cls-8" x="320.79" y="243.53" width="148.49" height="190.92"/><rect class="cls-7" x="333.67" y="254.9" width="122.73" height="168.19"/><path class="cls-28" d="M532.28,485.49a13.64,13.64,0,1,1-13.64-13.64A13.64,13.64,0,0,1,532.28,485.49Z" transform="translate(-151.25 -200.66)"/><polygon class="cls-8" points="338.04 355.85 393.66 316.26 419.32 345.04 451.09 322.74 451.09 415.74 338.04 415.74 338.04 355.85"/><path class="cls-16" d="M1053.15,468.93H870.32a19.59,19.59,0,0,0-19.59,19.59v84.61a19.59,19.59,0,0,0,19.59,19.59h16.22v22.71l22.6-22.71h144a19.59,19.59,0,0,0,19.59-19.59V488.52A19.59,19.59,0,0,0,1053.15,468.93Z" transform="translate(-151.25 -200.66)"/><path class="cls-7" d="M1311.12,621.59a14.42,14.42,0,0,0-14.76-14.54h1.31c7.69,0,13.45,6.18,13.45,14Z" transform="translate(-151.25 -200.66)"/><path class="cls-28" d="M1397.89,405.5H1163a34,34,0,0,0-34,34v71.79a31.34,31.34,0,0,0,31.35,31.34h172.3l37.52,37.52a2.62,2.62,0,0,0,1.84.77,2.46,2.46,0,0,0,1-.2,2.58,2.58,0,0,0,1.57-2.42V542.59h20.83a31.28,31.28,0,0,0,22.67-9.7,33.9,33.9,0,0,0,13.8-27.33v-66.1A34,34,0,0,0,1397.89,405.5Z" transform="translate(-151.25 -200.66)"/><path class="cls-29" d="M786.47,563.93" transform="translate(-151.25 -200.66)"/><path class="cls-29" d="M695.68,558.29" transform="translate(-151.25 -200.66)"/><path class="cls-30" d="M882.4,774.61c-4.44-6.79-46.89,16.88-42.45,23.67,0,0,26.13,35.92,37.68,49.25,7.08,8.16-80.52,8.18-108.15,12.52C732,865.94,750.7,877.6,750.7,877.6c1.8.73,84.49-2,84.49-2,6.43,0,110.2,3.16,110.2-3.27S882.4,774.61,882.4,774.61Z" transform="translate(-151.25 -200.66)"/><path class="cls-31" d="M692.61,845.63c2.17,5.17,121.54,13.86,121.54,13.86s38.43-2,53.72,3.58c4.1,1.51,25.44,7.95,26.6,10,1.93,3.39-19.2,2.5-27.72,4.42-32.65,7.34-212.23,12.28-219.78,3-8-9.8-3.94-51.34-2.93-90.75,0,0,47.27,11,47.34,13.06" transform="translate(-151.25 -200.66)"/><path class="cls-32" d="M1330.94,886.46a9.25,9.25,0,0,1-9.25,9.25H853.33a9.25,9.25,0,0,1-9.25-9.25h0a9.25,9.25,0,0,1,9.25-9.25h468.36a9.25,9.25,0,0,1,9.25,9.25Z" transform="translate(-151.25 -200.66)"/><path class="cls-17" d="M1330.94,899.52a9.25,9.25,0,0,1-9.25,9.25H853.33a9.25,9.25,0,0,1-9.25-9.25h0a9.25,9.25,0,0,1,9.25-9.25h468.36a9.25,9.25,0,0,1,9.25,9.25Z" transform="translate(-151.25 -200.66)"/><path class="cls-9" d="M795.91,578.4C809.65,564.66,817.5,547.07,790,529c-10.74-7-22.31.82-22.31.82l-18.78.28s-1.36,1.35-3.26,3S735.6,541,735.6,541l-16.05,12.51" transform="translate(-151.25 -200.66)"/><path class="cls-9" d="M796.08,578.32s8.34-18.79,7.55-26.48c-.72-7.09-5.91-13.84-15.4-20.07-8.73-5.72-18.29.53-18.7.8l-.8.53-18.46.28c-.61.57-1.47,1.36-2.48,2.23-1.95,1.67-9.87,7.74-10.2,8l-18.33,11.94L717.54,551l16.05-12.52c2.82-2.16,8.5-6.55,9.95-7.79,1.78-1.52,3.05-2.79,3.08-2.83l.94-.93,19.2-.28c3.19-1.87,14.33-7.33,25-.3,11.22,7.36,17.38,15.73,18.32,24.87C811.15,561.1,807.25,567.15,796.08,578.32Z" transform="translate(-151.25 -200.66)"/><path class="cls-18" d="M1441,1246.71a11.42,11.42,0,0,1-11.35-10.27l-22.86-222.36a11.43,11.43,0,1,1,22.74-2.33l22.85,222.36a11.43,11.43,0,0,1-10.2,12.54A11.66,11.66,0,0,1,1441,1246.71Z" transform="translate(-151.25 -200.66)"/><path class="cls-18" d="M1585.26,1246.71a11.43,11.43,0,0,1-10.86-7.87L1502,1018.44a11.43,11.43,0,0,1,21.72-7.13l72.38,220.4a11.44,11.44,0,0,1-7.3,14.43A11.32,11.32,0,0,1,1585.26,1246.71Z" transform="translate(-151.25 -200.66)"/><path class="cls-18" d="M1251.66,1246.71a11.32,11.32,0,0,1-3.56-.57,11.44,11.44,0,0,1-7.3-14.43l72.38-220.4a11.43,11.43,0,0,1,21.72,7.13l-72.38,220.4A11.44,11.44,0,0,1,1251.66,1246.71Z" transform="translate(-151.25 -200.66)"/><path class="cls-18" d="M1429.3,1122.08c-.41,0-.81.11-1.11-.17L1320.63,1023a1.56,1.56,0,0,1-.1-2.25,1.64,1.64,0,0,1,2.31-.06l106.36,98,91.18-100a1.63,1.63,0,0,1,2.41,2.2l-92.29,100.94c-.29.32-.7.27-1.13.27Z" transform="translate(-151.25 -200.66)"/><path class="cls-18" d="M1545,1122.6a1.65,1.65,0,0,1-1-.31l-122.4-89.64L1290.9,1119.9a1.63,1.63,0,0,1-1.81-2.72l131.67-87.88a1.62,1.62,0,0,1,1.87,0L1546,1119.65a1.63,1.63,0,0,1-1,2.95Z" transform="translate(-151.25 -200.66)"/><path class="cls-16" d="M1558.86,799.37s43.42,216.59-68.68,214.42-215.62,0-215.62,0v-49l91.13-176.37Z" transform="translate(-151.25 -200.66)"/><g class="cls-19"><path class="cls-7" d="M1420.3,1000.11c-3.74,0-7.56-.08-11.47-.22a3.27,3.27,0,0,1-3.14-3.39,3.33,3.33,0,0,1,3.39-3.14c46.36,1.77,79.41-7.13,98.28-26.47,16.62-17,15.61-36.21,15.59-36.4v-.39l6.26-114.4a3.26,3.26,0,1,1,6.51.36l-6.24,114.22c.11,2.45.41,22.85-17.45,41.17C1493.46,990.48,1462.63,1000.11,1420.3,1000.11Z" transform="translate(-151.25 -200.66)"/></g><path class="cls-9" d="M1154.13,1192.9c-5.88-.2-60.31,7.91-60.31,7.91s22.42,20.9,34.08,24.26,78,17.65,78,17.65l12.49-20.18.31-24.9" transform="translate(-151.25 -200.66)"/><path class="cls-33" d="M1295.74,932.16s-60.21,16.62-80.54,31.83-8.26,181.09-28.31,220.63c-6.86,13.53-49.71,15.53-49.71,15.53l73.4,14.91s32.64-79.42,45.79-118.23,7-103.45,7-103.45L1356.42,982" transform="translate(-151.25 -200.66)"/><path class="cls-34" d="M1218,1183.83s6.59,14.12-9,21" transform="translate(-151.25 -200.66)"/><path class="cls-9" d="M1401.73,1196.86c-2.89,5.13-26.31,54.61-20.71,57.19s28.87-10.3,37.21-19.11,51.57-61.18,51.57-61.18l-12.17-20.38-22-11.73" transform="translate(-151.25 -200.66)"/><path class="cls-35" d="M1283.77,957.74s-49.88,32.64-45.71,57.68S1383.55,1128,1409.44,1164c8.86,12.32-9.06,51.29-9.06,51.29l47-58.33s-55.51-65.5-83.92-95-48.5-52.28-48.5-52.28l60.6-39.3" transform="translate(-151.25 -200.66)"/><path class="cls-9" d="M1496.82,888.35s30.21,52-1.35,84.62-174.15,33.74-174.15,31.57c0-64.16-85.3-56.87-85.3-56.87s97.55-60.82,177.27-59" transform="translate(-151.25 -200.66)"/><path class="cls-9" d="M1335.08,1008.36c-8.44,0-13.87-.29-14.84-.68a3.55,3.55,0,0,1-2.19-3.14c0-14.87-4.87-26.9-14.5-35.73-23.27-21.38-66.82-17.93-67.26-17.89a3.26,3.26,0,0,1-2-6c4-2.51,99.44-61.3,179.07-59.55a3.27,3.27,0,0,1-.07,6.53h-.08c-62.52-1.49-137.38,36.94-164.76,52.32,15.63.49,42.16,3.86,59.52,19.8,10.42,9.57,16,22.27,16.56,37.8,19,1.38,140.6-2.14,168.59-31.1,29.5-30.52,1.17-80.21.88-80.71a3.27,3.27,0,0,1,5.65-3.28c1.28,2.21,31.06,54.5-1.84,88.53C1471.35,1002.62,1373,1008.36,1335.08,1008.36Z" transform="translate(-151.25 -200.66)"/><path class="cls-36" d="M1394.79,706.86s-21.23-8.16-39.19,22.86-57.14,101.22-57.14,101.22l-61.22-74.29-51.83-31-27.76,14.7s31.84,27.55,41.23,31.83,25.3,5.72,25.3,5.72,65.71,100.4,82,102,93.46-127.35,93.46-127.35" transform="translate(-151.25 -200.66)"/><path class="cls-37" d="M1242.14,763.18,1232.75,724l-10.61.41,1.63,22.86a16.33,16.33,0,0,0,3.13,20.54" transform="translate(-151.25 -200.66)"/><path class="cls-9" d="M1414.38,573.8c-.74,33.14-5.72,18.78-31,83.27s90.61,82.44,97.14,81.63,61.22-3.27,66.12-43.27-26.12-47.34-39.19-58-4.89-35.91-9.79-62-34.05-24.33-34.05-24.33-11.71-13.48-33.48,2C1430.11,553.14,1414.79,555.44,1414.38,573.8Z" transform="translate(-151.25 -200.66)"/><polygon class="cls-10" points="1244.81 498.31 1293.36 485.79 1329.47 489.61 1329.47 698.04 1245.12 698.04 1244.81 498.31"/><path class="cls-10" d="M1480.72,900.33h-84.35a1.63,1.63,0,0,1-1.63-1.63L1394.43,699a1.63,1.63,0,0,1,1.23-1.58l48.55-12.52a1.61,1.61,0,0,1,.58,0l36.1,3.82a1.65,1.65,0,0,1,1.47,1.63V898.7A1.64,1.64,0,0,1,1480.72,900.33ZM1398,897.07h81.09V691.74l-34.35-3.63-47,12.12Z" transform="translate(-151.25 -200.66)"/><path class="cls-38" d="M1475.82,631.77l2.59,57.58s-38.56,56.58-55.32,55.06c-11.48-1-18.08-27.32-8.89-43,5.78-9.87,27.65-12,27.65-12l10-27.2" transform="translate(-151.25 -200.66)"/><path class="cls-39" d="M1416.62,586s-17.71,89.68,13.23,89.61,38.62-35.36,38.62-35.36,10,2.38,15.19-10.6-8.85-20.92-8.85-20.92l-12.34,20.06.36-31.15Z" transform="translate(-151.25 -200.66)"/><path class="cls-7" d="M1396.06,699s-34.74,60.95-29.84,78.09,20,19.18,24.89,25.71S1389.89,902,1381.73,906s115.09-5.72,115.09-5.72-1.63-112.24,13.07-153.87-31.24-57.56-31.24-57.56-59.35,72-61.37,33.86c0-.39.24-9.64,6.89-30.28" transform="translate(-151.25 -200.66)"/><path class="cls-40" d="M1397.74,799s46.55,1.54,59.68-6.82c15-9.54,34.35-93.72,36.83-94.12,13.83-2.2,0,90.71,0,90.71V898.63c0-.34-97.2,6.82-97.2,6.82Z" transform="translate(-151.25 -200.66)"/><path class="cls-41" d="M1491.93,704s-11.43,25.31-9.8,65.31,5.71,76.32,5.71,76.32l-102,12.65s-76.73,14.7-44.08,22,186.93-2,186.93-2l-3.27-136.73S1528.66,693.39,1491.93,704Z" transform="translate(-151.25 -200.66)"/><path class="cls-42" d="M1366.22,863.18l-34.7-7.75-38.36,21.63s17.55,9,29.38,10.2,33.88.41,35.11,0,15.5-7.34,15.5-7.34" transform="translate(-151.25 -200.66)"/><path class="cls-28" d="M1377.18,891.43a5.41,5.41,0,0,1-5.4,5.41h0a5.41,5.41,0,0,1-5.41-5.41V846.48a5.41,5.41,0,0,1,5.41-5.4h0a5.4,5.4,0,0,1,5.4,5.4Z" transform="translate(-151.25 -200.66)"/><path class="cls-28" d="M1218.34,788.09a5.41,5.41,0,0,1-7.38-2h0a5.42,5.42,0,0,1,2-7.38l39.06-22.23a5.4,5.4,0,0,1,7.37,2h0a5.41,5.41,0,0,1-2,7.37Z" transform="translate(-151.25 -200.66)"/><path class="cls-28" d="M1224,798.83a5.41,5.41,0,0,1-7.37-2h0a5.41,5.41,0,0,1,2-7.38l39.07-22.23a5.41,5.41,0,0,1,7.37,2h0a5.4,5.4,0,0,1-2,7.37Z" transform="translate(-151.25 -200.66)"/><path class="cls-28" d="M1388.09,891.43a5.41,5.41,0,0,1-5.4,5.41h0a5.41,5.41,0,0,1-5.41-5.41V846.48a5.41,5.41,0,0,1,5.41-5.4h0a5.4,5.4,0,0,1,5.4,5.4Z" transform="translate(-151.25 -200.66)"/><path class="cls-28" d="M1481.46,641.41a7.93,7.93,0,1,1-7.93-7.93A7.93,7.93,0,0,1,1481.46,641.41Z" transform="translate(-151.25 -200.66)"/><path class="cls-9" d="M1462.71,579.59s-2.47,19.53-11.94,25.67-44,13.3-44,13.3l9-39.14" transform="translate(-151.25 -200.66)"/><path class="cls-7" d="M969.44,823.83a16.24,16.24,0,0,0-16.25,16.25v9.2a16.25,16.25,0,1,0,32.5,0v-9.2A16.25,16.25,0,0,0,969.44,823.83ZM979,847.38a9.53,9.53,0,1,1-19.06,0V842A9.53,9.53,0,0,1,979,842Z" transform="translate(-151.25 -200.66)"/><rect class="cls-7" x="820.06" y="612.8" width="51.21" height="62.14"/><path class="cls-7" d="M1189.71,840.08v9.2a16.26,16.26,0,1,0,32.51,0v-9.2a16.26,16.26,0,0,0-32.51,0Zm6.73,1.9a9.53,9.53,0,0,1,19.06,0v5.4a9.53,9.53,0,0,1-19.06,0Z" transform="translate(-151.25 -200.66)"/><rect class="cls-7" x="1001.64" y="612.8" width="51.21" height="62.14"/><polygon class="cls-21" points="714.82 574.17 687.54 532.57 688.22 588.84 714.82 574.17"/><path class="cls-21" d="M598.52,702.82a163.53,163.53,0,0,1,43.84,42c.29.42-16.37-5.11-16.37-5.11l-10.91,53.54-31.72-8.19" transform="translate(-151.25 -200.66)"/><path class="cls-9" d="M737.85,601.42s19.1,47.57,29,49.28,30.69-1.37,30.69-1.37,8.19,28-16,29-45.18-28.65-46.89-67.86" transform="translate(-151.25 -200.66)"/><path class="cls-9" d="M798.55,617.28s10.58,32.39-5.11,48.08-1.37-.34-1.37-.34" transform="translate(-151.25 -200.66)"/><path class="cls-7" d="M922.18,526.56a15.69,15.69,0,1,1-15.69-15.68A15.69,15.69,0,0,1,922.18,526.56Z" transform="translate(-151.25 -200.66)"/><path class="cls-7" d="M977.68,526.56A15.69,15.69,0,1,1,962,510.88,15.68,15.68,0,0,1,977.68,526.56Z" transform="translate(-151.25 -200.66)"/><path class="cls-7" d="M1033.18,526.56a15.69,15.69,0,1,1-15.69-15.68A15.68,15.68,0,0,1,1033.18,526.56Z" transform="translate(-151.25 -200.66)"/><path class="cls-7" d="M1240.36,473a15.69,15.69,0,1,1-15.69-15.69A15.69,15.69,0,0,1,1240.36,473Z" transform="translate(-151.25 -200.66)"/><path class="cls-7" d="M1295.86,473a15.69,15.69,0,1,1-15.69-15.69A15.68,15.68,0,0,1,1295.86,473Z" transform="translate(-151.25 -200.66)"/><path class="cls-7" d="M1351.36,473a15.69,15.69,0,1,1-15.69-15.69A15.68,15.68,0,0,1,1351.36,473Z" transform="translate(-151.25 -200.66)"/></g></g></svg>